<svg height='300px' width='300px'  fill="#000000" xmlns="http://www.w3.org/2000/svg" viewBox="0 0 512 512" x="0px" y="0px"><title>Application-management-work-program-service</title><g><rect x="48" y="80" width="16" height="16"></rect><rect x="80" y="80" width="16" height="16"></rect><rect x="112" y="80" width="16" height="16"></rect><path d="M48,432H189.058l-4.364,48H160v16H336V480H311.306l-4.364-48H448a32.036,32.036,0,0,0,32-32V224H464V352H32V128H240V112H32V80A16.019,16.019,0,0,1,48,64H296V48H48A32.036,32.036,0,0,0,16,80V400A32.036,32.036,0,0,0,48,432Zm247.24,48H200.76l4.364-48h85.752ZM464,368v32a16.019,16.019,0,0,1-16,16H48a16.019,16.019,0,0,1-16-16V368Z"></path><rect x="240" y="384" width="16" height="16"></rect><path d="M376,192a48,48,0,1,0-48-48A48.055,48.055,0,0,0,376,192Zm0-80a32,32,0,1,1-32,32A32.036,32.036,0,0,1,376,112Z"></path><path d="M275.159,78.868a7.993,7.993,0,0,0-7.8,4.928l-10.75,25.954a8,8,0,0,0,2.03,9l19.65,17.74v15.02l-19.65,17.74a8,8,0,0,0-2.03,9l10.75,25.954a8,8,0,0,0,7.8,4.928l26.439-1.35,10.62,10.62-1.35,26.439a8,8,0,0,0,4.928,7.8l25.954,10.75a8,8,0,0,0,9-2.03l17.74-19.65h15.02l17.74,19.65a8,8,0,0,0,9,2.03l25.954-10.75a8,8,0,0,0,4.928-7.8l-1.35-26.439,10.62-10.62,26.439,1.35a7.98,7.98,0,0,0,7.8-4.928l10.75-25.954a8,8,0,0,0-2.03-9l-19.65-17.74V136.49l19.65-17.74a8,8,0,0,0,2.03-9L484.641,83.8a8,8,0,0,0-7.8-4.928L450.4,80.218,439.782,69.6l1.35-26.439a8,8,0,0,0-4.928-7.8L410.25,24.609a8,8,0,0,0-9,2.03l-17.74,19.65H368.49l-17.74-19.65a8,8,0,0,0-9-2.03L315.8,35.359a8,8,0,0,0-4.928,7.8l1.35,26.439L301.6,80.218ZM310.4,94.046,326.046,78.4a8,8,0,0,0,2.333-6.065l-1.244-24.351,15.522-6.429L359,59.65a8,8,0,0,0,5.938,2.639h22.13A8,8,0,0,0,393,59.65l16.34-18.1,15.522,6.429-1.244,24.351a8,8,0,0,0,2.333,6.065L441.6,94.046a8.012,8.012,0,0,0,6.065,2.333l24.351-1.244,6.429,15.522L460.35,127a8,8,0,0,0-2.639,5.938v22.13A8,8,0,0,0,460.35,161l18.1,16.34-6.429,15.522-24.351-1.244a7.992,7.992,0,0,0-6.065,2.333L425.954,209.6a8,8,0,0,0-2.333,6.065l1.244,24.351-15.522,6.429L393,228.35a8,8,0,0,0-5.938-2.639h-22.13A8,8,0,0,0,359,228.35l-16.34,18.1-15.522-6.429,1.244-24.351a8,8,0,0,0-2.333-6.065L310.4,193.954a8.015,8.015,0,0,0-6.065-2.333l-24.351,1.244-6.429-15.522L291.65,161a8,8,0,0,0,2.639-5.938v-22.13A8,8,0,0,0,291.65,127l-18.1-16.34,6.429-15.522,24.351,1.244A8.005,8.005,0,0,0,310.4,94.046Z"></path><path d="M104,160a8,8,0,0,0-8-8H64a8,8,0,0,0-8,8v32a8,8,0,0,0,8,8H96a8,8,0,0,0,8-8ZM88,184H72V168H88Z"></path><path d="M168,160a8,8,0,0,0-8-8H128a8,8,0,0,0-8,8v32a8,8,0,0,0,8,8h32a8,8,0,0,0,8-8Zm-16,24H136V168h16Z"></path><path d="M232,160a8,8,0,0,0-8-8H192a8,8,0,0,0-8,8v32a8,8,0,0,0,8,8h32a8,8,0,0,0,8-8Zm-16,24H200V168h16Z"></path><path d="M104,224a8,8,0,0,0-8-8H64a8,8,0,0,0-8,8v32a8,8,0,0,0,8,8H96a8,8,0,0,0,8-8ZM88,248H72V232H88Z"></path><path d="M168,224a8,8,0,0,0-8-8H128a8,8,0,0,0-8,8v32a8,8,0,0,0,8,8h32a8,8,0,0,0,8-8Zm-16,24H136V232h16Z"></path><path d="M232,224a8,8,0,0,0-8-8H192a8,8,0,0,0-8,8v32a8,8,0,0,0,8,8h32a8,8,0,0,0,8-8Zm-16,24H200V232h16Z"></path><path d="M96,280H64a8,8,0,0,0-8,8v32a8,8,0,0,0,8,8H96a8,8,0,0,0,8-8V288A8,8,0,0,0,96,280Zm-8,32H72V296H88Z"></path><path d="M160,280H128a8,8,0,0,0-8,8v32a8,8,0,0,0,8,8h32a8,8,0,0,0,8-8V288A8,8,0,0,0,160,280Zm-8,32H136V296h16Z"></path><path d="M224,280H192a8,8,0,0,0-8,8v32a8,8,0,0,0,8,8h32a8,8,0,0,0,8-8V288A8,8,0,0,0,224,280Zm-8,32H200V296h16Z"></path><rect x="272" y="280" width="16" height="16"></rect><rect x="304" y="280" width="136" height="16"></rect><rect x="256" y="312" width="152" height="16"></rect></g></svg>