<svg height='300px' width='300px'  fill="#000000" xmlns="http://www.w3.org/2000/svg" viewBox="0 0 512 512" x="0px" y="0px"><title>conference-Call-Meeting-Mobile-Voice</title><g><path d="M104,416h88V400H104a24.027,24.027,0,0,1-24-24V56a24.027,24.027,0,0,1,24-24H264a24.027,24.027,0,0,1,24,24V80h16V56a40.045,40.045,0,0,0-40-40H104A40.045,40.045,0,0,0,64,56V376A40.045,40.045,0,0,0,104,416Z"></path><rect x="176" y="360" width="16" height="16"></rect><rect x="192" y="56" width="16" height="16"></rect><rect x="160" y="56" width="16" height="16"></rect><path d="M208,136V456a40.045,40.045,0,0,0,40,40H408a40.045,40.045,0,0,0,40-40V136a40.045,40.045,0,0,0-40-40H248A40.045,40.045,0,0,0,208,136Zm224,0V456a24.027,24.027,0,0,1-24,24H248a24.027,24.027,0,0,1-24-24V136a24.027,24.027,0,0,1,24-24H408A24.027,24.027,0,0,1,432,136Z"></path><rect x="320" y="440" width="16" height="16"></rect><rect x="336" y="136" width="16" height="16"></rect><rect x="304" y="136" width="16" height="16"></rect><path d="M328,296a40.045,40.045,0,0,0,40-40V224a40,40,0,0,0-80,0v32A40.045,40.045,0,0,0,328,296Zm-24-72a24,24,0,0,1,48,0v32a24,24,0,0,1-48,0Z"></path><path d="M320,327.545V392H288v16h80V392H336V327.545A72.1,72.1,0,0,0,400,256V240H384v16a56,56,0,0,1-112,0V240H256v16A72.1,72.1,0,0,0,320,327.545Z"></path><rect x="464" y="208" width="16" height="208"></rect><rect x="464" y="432" width="16" height="16"></rect><rect x="32" y="56" width="16" height="152"></rect><rect x="32" y="224" width="16" height="16"></rect><rect x="32" y="256" width="16" height="16"></rect></g></svg>