<?xml version="1.0" encoding="utf-8"?>
<!-- Generator: Adobe Illustrator 25.2.0, SVG Export Plug-In . SVG Version: 6.00 Build 0)  -->
<svg version="1.1" id="Capa_1" xmlns="http://www.w3.org/2000/svg" xmlns:xlink="http://www.w3.org/1999/xlink" x="0px" y="0px"
	 viewBox="0 0 200 171" style="enable-background:new 0 0 200 171;" xml:space="preserve">
<style type="text/css">
	.st0{fill:#095228;}
</style>
<g>
	<g>
		<path class="st0" d="M200,170.48c-19.45,0-37.22,0.15-54.99-0.19c-2.18-0.04-5.15-2.22-6.34-4.24
			c-22.16-37.41-44.13-74.92-66-112.5c-0.99-1.7-1.6-4.71-0.76-6.2C80.61,31.9,89.66,16.63,99.37,0c2.27,3.36,3.87,5.47,5.21,7.74
			c11.88,20.15,23.47,40.48,35.7,60.41c3.59,5.86,3.9,10.45-0.18,15.84c-2.37,3.14-4.07,6.8-7.1,11.98c7.3,0,12.79-0.33,18.2,0.15
			c2.43,0.22,5.78,1.43,6.89,3.29C171.96,122.46,185.48,145.72,200,170.48z M114.59,92.89c11.86-14.36,11.92-15,3.79-29.19
			c-2.65-4.62-5.28-9.26-7.97-13.86c-3.25-5.56-6.55-11.1-10.57-17.92c-3.39,5.66-6.14,9.59-8.14,13.87
			c-0.93,1.99-1.4,5.18-0.43,6.91C98.65,65.96,106.45,78.99,114.59,92.89z M126.9,113.74c5.87,10.05,11.59,19.83,17.29,29.63
			c6.97,11.97,10.63,13.39,26.35,9.4c-5.83-10.06-11.45-19.9-17.23-29.65C145.94,110.69,143.05,109.65,126.9,113.74z"/>
		<path class="st0" d="M119.41,169.44c-16.52,2.95-17.18,2.82-24.66-10.15c-2.46-4.27-5.32-6.03-10.3-5.95
			c-16.52,0.27-33.05,0.3-49.57,0.01c-5.05-0.09-7.8,1.87-10.23,6.08c-7.34,12.72-7.84,12.79-24.66,10.16
			c19.76-33.71,39.31-67.08,59.75-101.94C80.04,102.28,99.51,135.49,119.41,169.44z M59.77,99.92c-7.61,13.01-14.2,24.28-21.41,36.6
			c14.68,0,27.86,0,42.66,0C73.79,124.06,67.25,112.8,59.77,99.92z"/>
	</g>
</g>
</svg>
