<svg width="56" height="64" viewBox="0 0 56 64" fill="none" xmlns="http://www.w3.org/2000/svg">
<path d="M21.5 2.29998C18.5 5.09998 16.1 8.79998 14.3 13.4C12.5 18 11.6 22.6 11.6 27.2C11.6 31 12.1 34.1 13.1 36.5C14.3 38.7 16 41.1 18.2 43.7C19.8 45.5 21 47.1 21.8 48.5C22.6 49.9 23 51.6 23 53.6C23 56.6 22.1 59.1 20.3 61.1C18.5 62.9 16.2 63.8 13.4 63.8C9.4 63.8 6.3 62.1 4.1 58.7C1.9 55.3 0.800001 50.5 0.800001 44.3C0.800001 36.7 2.5 29 5.9 21.2C9.5 13.4 14.3 6.59998 20.3 0.799986L21.5 2.29998ZM54.5 2.29998C51.5 5.09998 49.1 8.79998 47.3 13.4C45.5 18 44.6 22.6 44.6 27.2C44.6 31 45.1 34.1 46.1 36.5C47.3 38.7 49 41.1 51.2 43.7C52.8 45.5 54 47.1 54.8 48.5C55.6 49.9 56 51.6 56 53.6C56 56.6 55.1 59.1 53.3 61.1C51.5 62.9 49.2 63.8 46.4 63.8C42.4 63.8 39.3 62.1 37.1 58.7C34.9 55.3 33.8 50.5 33.8 44.3C33.8 36.7 35.5 29 38.9 21.2C42.5 13.4 47.3 6.59998 53.3 0.799986L54.5 2.29998Z" fill="#ED6C21"/>
</svg>
