<svg width="56" height="64" viewBox="0 0 56 64" fill="none" xmlns="http://www.w3.org/2000/svg">
<path d="M1.8 62.3C4.8 59.5 7.2 55.8 9 51.2C10.8 46.6 11.7 42 11.7 37.4C11.7 33.6 11.1 30.6 9.9 28.4C8.9 26 7.3 23.5 5.1 20.9C3.5 19.1 2.3 17.5 1.5 16.1C0.700001 14.7 0.300001 13 0.300001 11C0.300001 7.99999 1.2 5.59998 3 3.79998C4.8 1.79999 7.1 0.799986 9.9 0.799986C13.9 0.799986 17 2.49999 19.2 5.89999C21.4 9.3 22.5 14.1 22.5 20.3C22.5 27.9 20.7 35.6 17.1 43.4C13.7 51.2 9 58 3 63.8L1.8 62.3ZM34.8 62.3C37.8 59.5 40.2 55.8 42 51.2C43.8 46.6 44.7 42 44.7 37.4C44.7 33.6 44.1 30.6 42.9 28.4C41.9 26 40.3 23.5 38.1 20.9C36.5 19.1 35.3 17.5 34.5 16.1C33.7 14.7 33.3 13 33.3 11C33.3 7.99999 34.2 5.59998 36 3.79998C37.8 1.79999 40.1 0.799986 42.9 0.799986C46.9 0.799986 50 2.49999 52.2 5.89999C54.4 9.3 55.5 14.1 55.5 20.3C55.5 27.9 53.7 35.6 50.1 43.4C46.7 51.2 42 58 36 63.8L34.8 62.3Z" fill="#ED6C21"/>
</svg>
